<svg width="17" height="17" viewBox="0 0 17 17" fill="none" xmlns="http://www.w3.org/2000/svg">
<path d="M6.9 3.7H10.1C10.1 3.27565 9.93143 2.86869 9.63137 2.56863C9.33131 2.26857 8.92435 2.1 8.5 2.1C8.07565 2.1 7.66869 2.26857 7.36863 2.56863C7.06857 2.86869 6.9 3.27565 6.9 3.7ZM5.3 3.7C5.3 2.85131 5.63714 2.03737 6.23726 1.43726C6.83737 0.837142 7.65131 0.5 8.5 0.5C9.34869 0.5 10.1626 0.837142 10.7627 1.43726C11.3629 2.03737 11.7 2.85131 11.7 3.7H15.7C15.9122 3.7 16.1157 3.78429 16.2657 3.93431C16.4157 4.08434 16.5 4.28783 16.5 4.5C16.5 4.71217 16.4157 4.91566 16.2657 5.06569C16.1157 5.21571 15.9122 5.3 15.7 5.3H14.9944L14.2856 13.572C14.2175 14.3708 13.852 15.1149 13.2615 15.6571C12.671 16.1993 11.8985 16.5001 11.0968 16.5H5.9032C5.10153 16.5001 4.32902 16.1993 3.73852 15.6571C3.14802 15.1149 2.78254 14.3708 2.7144 13.572L2.0056 5.3H1.3C1.08783 5.3 0.884344 5.21571 0.734315 5.06569C0.584285 4.91566 0.5 4.71217 0.5 4.5C0.5 4.28783 0.584285 4.08434 0.734315 3.93431C0.884344 3.78429 1.08783 3.7 1.3 3.7H5.3ZM10.9 8.5C10.9 8.28783 10.8157 8.08434 10.6657 7.93431C10.5157 7.78429 10.3122 7.7 10.1 7.7C9.88783 7.7 9.68434 7.78429 9.53432 7.93431C9.38429 8.08434 9.3 8.28783 9.3 8.5V11.7C9.3 11.9122 9.38429 12.1157 9.53432 12.2657C9.68434 12.4157 9.88783 12.5 10.1 12.5C10.3122 12.5 10.5157 12.4157 10.6657 12.2657C10.8157 12.1157 10.9 11.9122 10.9 11.7V8.5ZM6.9 7.7C6.68783 7.7 6.48434 7.78429 6.33431 7.93431C6.18429 8.08434 6.1 8.28783 6.1 8.5V11.7C6.1 11.9122 6.18429 12.1157 6.33431 12.2657C6.48434 12.4157 6.68783 12.5 6.9 12.5C7.11217 12.5 7.31566 12.4157 7.46569 12.2657C7.61571 12.1157 7.7 11.9122 7.7 11.7V8.5C7.7 8.28783 7.61571 8.08434 7.46569 7.93431C7.31566 7.78429 7.11217 7.7 6.9 7.7Z" fill="#F3DAFF"/>
</svg>
