<svg width="28" height="28" viewBox="0 0 28 28" fill="none" xmlns="http://www.w3.org/2000/svg">
<path d="M20.3805 17.7564C20.2564 17.7566 20.1337 17.73 20.0209 17.6785C19.9161 17.6312 19.8217 17.5638 19.743 17.48C19.6644 17.3962 19.603 17.2978 19.5623 17.1903C19.5217 17.0828 19.5027 16.9684 19.5063 16.8535C19.5099 16.7386 19.5361 16.6256 19.5834 16.5209C19.942 15.729 20.1267 14.8693 20.125 14C20.125 13.7679 20.2172 13.5454 20.3813 13.3813C20.5454 13.2172 20.7679 13.125 21 13.125C21.2321 13.125 21.4546 13.2172 21.6187 13.3813C21.7828 13.5454 21.875 13.7679 21.875 14C21.8756 15.1168 21.6369 16.2207 21.175 17.2375C21.1065 17.3912 20.9951 17.522 20.8542 17.614C20.7133 17.706 20.5488 17.7555 20.3805 17.7564Z" fill="#2A006D"/>
<path d="M9.625 7C9.625 5.83968 10.0859 4.72688 10.9064 3.90641C11.7269 3.08594 12.8397 2.625 14 2.625C15.1603 2.625 16.2731 3.08594 17.0936 3.90641C17.9141 4.72688 18.375 5.83968 18.375 7V14C18.375 14.2321 18.2828 14.4546 18.1187 14.6187C17.9546 14.7828 17.7321 14.875 17.5 14.875L9.625 7Z" fill="#2A006D"/>
<path d="M23.3686 22.1314L5.86862 4.63137C5.70359 4.47198 5.48256 4.38378 5.25314 4.38578C5.02372 4.38777 4.80426 4.47979 4.64202 4.64202C4.47979 4.80426 4.38777 5.02372 4.38578 5.25314C4.38378 5.48256 4.47198 5.70359 4.63137 5.86862L9.62499 10.8622V14C9.62502 14.7904 9.83917 15.566 10.2447 16.2444C10.6502 16.9229 11.2319 17.4788 11.9281 17.8531C12.6242 18.2274 13.4087 18.4061 14.1983 18.3703C14.9879 18.3345 15.753 18.0854 16.4124 17.6496L17.6636 18.9009C16.7543 19.5832 15.6729 19.9986 14.5406 20.1006C13.4083 20.2025 12.2701 19.9869 11.2535 19.4779C10.237 18.969 9.38236 18.1868 8.78558 17.2192C8.18881 16.2516 7.87349 15.1368 7.87499 14C7.87499 13.7679 7.7828 13.5454 7.61871 13.3813C7.45461 13.2172 7.23205 13.125 6.99999 13.125C6.76793 13.125 6.54537 13.2172 6.38127 13.3813C6.21718 13.5454 6.12499 13.7679 6.12499 14C6.12761 15.936 6.84254 17.8034 8.13349 19.2462C9.42444 20.689 11.2012 21.6063 13.125 21.8234V23.625H10.5C10.2679 23.625 10.0454 23.7172 9.88127 23.8813C9.71718 24.0454 9.62499 24.2679 9.62499 24.5C9.62499 24.7321 9.71718 24.9546 9.88127 25.1187C10.0454 25.2828 10.2679 25.375 10.5 25.375H17.5C17.7321 25.375 17.9546 25.2828 18.1187 25.1187C18.2828 24.9546 18.375 24.7321 18.375 24.5C18.375 24.2679 18.2828 24.0454 18.1187 23.8813C17.9546 23.7172 17.7321 23.625 17.5 23.625H14.875V21.8234C16.353 21.662 17.7541 21.0815 18.9131 20.1504L22.1314 23.3686C22.2964 23.528 22.5174 23.6162 22.7468 23.6142C22.9763 23.6122 23.1957 23.5202 23.358 23.358C23.5202 23.1957 23.6122 22.9763 23.6142 22.7468C23.6162 22.5174 23.528 22.2964 23.3686 22.1314Z" fill="#2A006D"/>
</svg>
